<svg width="256" height="256" viewBox="0 0 256 256" version="1.1" xmlns="http://www.w3.org/2000/svg" xmlns:xlink="http://www.w3.org/1999/xlink">
<title>logo-training-center-black-256</title>
<desc>Created using Figma</desc>
<g id="Canvas" transform="translate(-884 -220)">
<g id="logo-training-center-black-256">
<g id="Rectangle">
<use xlink:href="#path0_fill" transform="translate(884 220)" fill="#22232E"/>
</g>
<g id="Union">
<use xlink:href="#path1_fill" transform="translate(909 258)" fill="#F2F2F2"/>
</g>
</g>
</g>
<defs>
<path id="path0_fill" d="M 0 35C 0 15.67 15.67 0 35 0L 221 0C 240.33 0 256 15.67 256 35L 256 221C 256 240.33 240.33 256 221 256L 35 256C 15.67 256 0 240.33 0 221L 0 35Z"/>
<path id="path1_fill" fill-rule="evenodd" d="M 115.47 0L 148.823 0L 148.823 37.8773L 185.296 37.8773L 185.296 54.4032L 148.823 54.4032L 148.823 116.607C 148.823 122.635 149.458 127.791 150.729 132.075C 152.158 136.2 153.985 139.611 156.208 142.308C 158.591 144.846 161.291 146.75 164.308 148.019C 167.326 149.288 170.503 149.923 173.838 149.923C 178.603 149.923 183.209 149.209 187.656 147.781C 192.103 146.195 195.835 144.529 198.853 142.784L 206 158.252C 201.235 160.632 195.756 162.615 189.562 164.201C 183.526 165.788 177.491 166.581 171.456 166.581C 153.508 166.581 139.691 162.139 130.002 153.254C 120.314 144.37 115.47 132.154 115.47 116.607L 115.47 54.4032L 92.6479 54.4032L 92.6479 37.8773L 115.47 37.8773L 115.47 0ZM 92.6479 163.474L 0 163.474L 0 180L 92.6479 180L 92.6479 163.474Z"/>
</defs>
</svg>
