<svg width="128" height="128" viewBox="0 0 128 128" version="1.1" xmlns="http://www.w3.org/2000/svg" xmlns:xlink="http://www.w3.org/1999/xlink">
<title>logo-training-center-negative-blue-128</title>
<desc>Created using Figma</desc>
<g id="Canvas" transform="translate(-1253 -1008)">
<g id="logo-training-center-negative-blue-128">
<g id="Rectangle">
<use xlink:href="#path0_fill" transform="translate(1253 1008)" fill="#FFFFFF"/>
</g>
<g id="Union">
<use xlink:href="#path1_fill" transform="translate(1265.5 1027)" fill="#267DBD"/>
</g>
</g>
</g>
<defs>
<path id="path0_fill" d="M 0 17.5C 0 7.83502 7.83502 0 17.5 0L 110.5 0C 120.165 0 128 7.83502 128 17.5L 128 110.5C 128 120.165 120.165 128 110.5 128L 17.5 128C 7.83502 128 0 120.165 0 110.5L 0 17.5Z"/>
<path id="path1_fill" fill-rule="evenodd" d="M 57.7349 0L 74.4115 0L 74.4115 18.9387L 92.6479 18.9387L 92.6479 27.2016L 74.4115 27.2016L 74.4115 58.3033C 74.4115 61.3177 74.7291 63.8957 75.3645 66.0374C 76.0791 68.0999 76.9924 69.8054 78.1041 71.1539C 79.2954 72.4231 80.6454 73.375 82.1542 74.0096C 83.6631 74.6441 85.2513 74.9614 86.9189 74.9614C 89.3014 74.9614 91.6042 74.6045 93.8279 73.8906C 96.0514 73.0973 97.9176 72.2644 99.4264 71.3918L 103 79.1259C 100.618 80.3158 97.8779 81.3074 94.7808 82.1006C 91.7632 82.8939 88.7455 83.2905 85.7278 83.2905C 76.7542 83.2905 69.8453 81.0694 65.0011 76.6272C 60.157 72.1851 57.7349 66.0771 57.7349 58.3033L 57.7349 27.2016L 46.324 27.2016L 46.324 18.9387L 57.7349 18.9387L 57.7349 0ZM 46.324 81.7371L 0 81.7371L 0 90L 46.324 90L 46.324 81.7371Z"/>
</defs>
</svg>
