<svg width="64" height="64" viewBox="0 0 64 64" version="1.1" xmlns="http://www.w3.org/2000/svg" xmlns:xlink="http://www.w3.org/1999/xlink">
<title>logo-training-center-negative-black-64</title>
<desc>Created using Figma</desc>
<g id="Canvas" transform="translate(-1457 -1732)">
<g id="logo-training-center-negative-black-64">
<g id="Rectangle">
<use xlink:href="#path0_fill" transform="translate(1457 1732)" fill="#FFFEFA"/>
</g>
<g id="Union">
<use xlink:href="#path1_fill" transform="translate(1463.25 1741.5)" fill="#22232E"/>
</g>
</g>
</g>
<defs>
<path id="path0_fill" d="M 0 8.75C 0 3.91751 3.91751 0 8.75 0L 55.25 0C 60.0825 0 64 3.91751 64 8.75L 64 55.25C 64 60.0825 60.0825 64 55.25 64L 8.75 64C 3.91751 64 0 60.0825 0 55.25L 0 8.75Z"/>
<path id="path1_fill" fill-rule="evenodd" d="M 28.8674 0L 37.2057 0L 37.2057 9.46933L 46.324 9.46933L 46.324 13.6008L 37.2057 13.6008L 37.2057 29.1517C 37.2057 30.6588 37.3646 31.9478 37.6823 33.0187C 38.0396 34.0499 38.4962 34.9027 39.0521 35.5769C 39.6477 36.2115 40.3226 36.6875 41.0771 37.0048C 41.8315 37.3221 42.6256 37.4807 43.4595 37.4807C 44.6506 37.4807 45.8021 37.3022 46.9139 36.9453C 48.0258 36.5486 48.9589 36.1322 49.7133 35.6959L 51.5 39.563C 50.3088 40.1579 48.939 40.6537 47.3904 41.0503C 45.8816 41.4469 44.3727 41.6452 42.8639 41.6452C 38.3771 41.6452 34.9226 40.5347 32.5006 38.3136C 30.0785 36.0925 28.8674 33.0385 28.8674 29.1517L 28.8674 13.6008L 23.162 13.6008L 23.162 9.46933L 28.8674 9.46933L 28.8674 0ZM 23.162 40.8685L 0 40.8685L 0 45L 23.162 45L 23.162 40.8685Z"/>
</defs>
</svg>
