<svg width="512" height="512" viewBox="0 0 512 512" version="1.1" xmlns="http://www.w3.org/2000/svg" xmlns:xlink="http://www.w3.org/1999/xlink">
<title>logo-training-center-blue-512</title>
<desc>Created using Figma</desc>
<g id="Canvas" transform="translate(-277 696)">
<g id="logo-training-center-blue-512">
<g id="Rectangle">
<use xlink:href="#path0_fill" transform="translate(277 -696)" fill="#267DBD"/>
</g>
<g id="Union">
<use xlink:href="#path1_fill" transform="translate(327 -620)" fill="#F2F2F2"/>
</g>
</g>
</g>
<defs>
<path id="path0_fill" d="M 0 70C 0 31.3401 31.3401 0 70 0L 442 0C 480.66 0 512 31.3401 512 70L 512 442C 512 480.66 480.66 512 442 512L 70 512C 31.3401 512 0 480.66 0 442L 0 70Z"/>
<path id="path1_fill" fill-rule="evenodd" d="M 230.939 0L 297.646 0L 297.646 75.7547L 370.592 75.7547L 370.592 108.806L 297.646 108.806L 297.646 233.213C 297.646 245.271 298.917 255.583 301.458 264.15C 304.317 272.4 307.97 279.221 312.417 284.615C 317.181 289.692 322.582 293.5 328.617 296.038C 334.652 298.577 341.005 299.846 347.676 299.846C 357.205 299.846 366.417 298.418 375.311 295.562C 384.206 292.389 391.67 289.058 397.706 285.567L 412 316.504C 402.47 321.263 391.512 325.229 379.123 328.402C 367.053 331.575 354.982 333.162 342.911 333.162C 307.017 333.162 279.381 324.278 260.004 306.509C 240.628 288.74 230.939 264.308 230.939 233.213L 230.939 108.806L 185.296 108.806L 185.296 75.7547L 230.939 75.7547L 230.939 0ZM 185.296 326.948L 0 326.948L 0 360L 185.296 360L 185.296 326.948Z"/>
</defs>
</svg>
