<?xml version="1.0" encoding="UTF-8" standalone="no"?>
<svg width="512px" height="512px" viewBox="0 0 512 512" version="1.1" xmlns="http://www.w3.org/2000/svg" xmlns:xlink="http://www.w3.org/1999/xlink">
    <!-- Generator: Sketch 43.2 (39069) - http://www.bohemiancoding.com/sketch -->
    <title>512 - Play Store Copy 6</title>
    <desc>Created with Sketch.</desc>
    <defs></defs>
    <g id="Page-1" stroke="none" stroke-width="1" fill="none" fill-rule="evenodd">
        <g id="512---Play-Store-Copy-6">
            <g id="ct-logo-v2" transform="translate(34.000000, 29.000000)">
                <g id="ct-logo-copy">
                    <g id="Group" transform="translate(0.000000, 0.000000)" fill-rule="nonzero">
                        <g transform="translate(6.354374, 0.000000)" id="Shape">
                            <path d="M355.95464,110.136771 C346.329241,102.362411 336.333635,95.3284657 325.782718,89.4051435 L322.450849,105.694279 C327.263548,108.285733 330.780521,111.802705 332.446455,113.653744 C333.371974,114.764366 333.927286,115.504782 333.927286,115.504782 C334.482597,116.245197 334.297493,117.35582 333.557078,118.096235 L323.931679,127.351426 C340.961231,136.421513 356.139744,148.823469 369.097011,164.001982 C378.537305,175.108211 386.496769,187.510166 392.790299,200.652537 L399.824244,195.284527 C400.56466,194.729215 401.675282,194.729215 402.415698,195.469631 C402.415698,195.469631 403.156113,196.024942 404.081632,197.320669 C405.747566,199.356811 408.153916,202.503576 409.81985,206.57586 L428.885544,205.095029 C424.072844,193.9888 418.334626,183.252779 411.855992,172.886965 C399.824244,172.14655 384.830835,163.631774 372.984191,149.748988 C361.692858,136.791721 355.769536,121.983415 355.95464,110.136771 Z" fill="#D33837"></path>
                            <path d="M144.010769,148.823469 C138.087447,162.336047 124.945076,171.961446 107.360214,175.663522 C105.138968,176.03373 103.102826,176.403937 100.88158,176.774145 C98.6603344,194.359008 99.2156458,212.869389 102.732618,231.935082 L141.974627,228.788318 C139.753382,218.2374 141.234212,210.46304 141.234212,210.092832 C141.419316,209.537521 141.60442,208.982209 142.159731,208.797105 C142.715043,208.426898 143.270354,208.426898 143.825666,208.612002 L180.661325,219.533127 C175.478418,184.733609 184.733609,153.821272 206.760963,133.644956 L186.029336,115.319678 L185.844232,115.134574 C185.288921,114.394159 185.103817,113.46864 185.659128,112.728224 C188.250582,108.285733 191.58245,104.76876 195.839838,101.807099 L172.331653,74.4117344 C162.150944,79.2244336 152.710649,85.1477557 144.380977,92.1817008 C141.60442,94.5880504 139.012966,97.1795038 136.421513,99.7709573 C147.342638,115.504782 150.859611,133.459852 144.010769,148.823469 Z" fill="#ED684E"></path>
                            <path d="M219.162919,70.1543466 C216.016154,67.9331008 213.239597,65.711855 210.648144,63.1204015 C198.616395,64.6012321 186.954855,67.747997 176.03373,72.1904886 L199.171707,99.2156458 C206.760963,94.7731542 213.609805,94.2178428 213.980012,94.2178428 C214.720427,94.2178428 215.275739,94.4029466 215.645947,94.958258 C215.83105,95.1433618 216.016154,95.3284657 216.016154,95.6986733 L224.716034,121.057896 C248.77953,108.841044 279.136556,108.65594 308.93827,120.502585 L306.161713,104.76876 C305.976609,104.213449 306.161713,103.658137 306.531921,103.102826 C306.902128,102.732618 307.45744,102.362411 308.012751,102.362411 C311.714828,102.177307 315.046696,102.732618 318.563669,104.028345 L321.895537,87.3690015 C309.123374,80.3350565 296.166107,74.781942 283.023736,70.709658 C271.732403,86.9987939 243.041311,86.8136901 219.162919,70.1543466 Z" fill="#F5A36A"></path>
                            <path d="M413.707031,114.209055 C396.677479,94.4029466 373.90971,86.0732748 362.803481,95.5135695 C359.101405,98.6603344 357.250366,103.473034 356.880159,109.396356 L356.880159,109.396356 L356.880159,111.987809 C357.250366,122.908934 362.988585,136.606617 373.539502,148.638365 C384.645731,161.595632 398.343414,169.7402 409.449643,171.035927 C410.375162,171.221031 411.115577,171.221031 412.041096,171.221031 L412.041096,171.221031 C416.853795,171.406134 421.111183,170.110408 424.443052,167.33385 C435.549281,157.893556 430.736582,134.015163 413.707031,114.209055 Z" fill="#D33837"></path>
                            <path d="M141.234212,148.268157 C147.712846,133.644956 144.380977,116.430301 134.015163,101.251788 C133.644956,100.696476 133.274748,100.141165 132.90454,99.4007496 C124.019557,87.3690015 110.692082,76.4478763 94.2178428,69.2288275 C56.4566641,52.569484 15.9189282,60.8991557 4.07228397,87.7392092 C-7.77436031,114.579263 13.3274748,150.119195 51.0886534,166.778539 C66.6373741,173.62738 83.1116137,176.403937 98.1050229,175.108211 L98.1050229,175.108211 C98.8454382,175.108211 99.5858534,174.923107 100.326269,174.923107 C102.362411,174.738003 104.213449,174.367795 106.064487,173.997588 C123.094038,170.295511 135.495994,161.225424 141.234212,148.268157 Z" fill="#ED684E"></path>
                            <path d="M280.247179,70.3394504 C280.432282,70.1543466 280.617386,69.9692428 280.80249,69.7841389 C280.987594,69.4139313 281.357802,69.0437237 281.542905,68.673516 L281.542905,68.673516 C290.9832,53.1247954 281.172698,28.320884 258.590032,12.7721634 C235.637159,-3.14676489 208.05669,-3.51697252 197.320669,11.8466443 C188.065478,25.1741191 194.173904,45.9057466 210.46304,61.639571 L210.46304,61.639571 C211.203455,62.1948824 211.758766,62.9352977 212.499182,63.4906092 C214.720427,65.3416473 216.941673,67.3777893 219.533127,69.0437237 C242.115792,84.5924443 269.14095,85.1477557 280.247179,70.3394504 Z" fill="#F5A36A"></path>
                        </g>
                        <g transform="translate(0.000000, 259.145344)" id="Shape" fill="#0C1624">
                            <g transform="translate(0.000000, 0.000000)">
                                <polygon points="68.1790489 20.9167313 43.9304489 20.9167313 43.9304489 102.547515 23.9392367 102.547515 23.9392367 20.9167313 0.0608443102 20.9167313 0.0608443102 4.4424916 67.9939451 4.4424916 67.9939451 20.9167313"></polygon>
                                <path d="M110.197615,48.1269924 L103.904086,47.5716809 C98.7211787,47.5716809 95.2042061,49.7929267 93.353168,54.4205221 L93.353168,102.547515 L74.102371,102.547515 L74.102371,29.6166107 L92.0574413,29.6166107 L92.6127527,37.5760748 C95.5744138,31.4676489 99.8318016,28.320884 105.014708,28.320884 C107.235954,28.320884 108.901889,28.6910916 110.197615,29.2464031 L110.197615,48.1269924 Z"></path>
                                <path d="M152.586389,102.547515 C152.031078,101.436892 151.475766,99.5858534 150.920455,96.8092962 C147.588586,101.436892 142.960991,103.843241 137.037669,103.843241 C130.929243,103.843241 125.93144,101.807099 121.859156,97.7348153 C117.786872,93.6625313 115.75073,88.4796244 115.75073,82.0009908 C115.75073,74.4117344 118.157079,68.4884122 123.154882,64.2310244 C127.967582,59.9736366 135.001527,57.9374947 144.256718,57.7523908 L149.994936,57.7523908 L149.994936,51.8290687 C149.994936,48.4972 149.439624,46.2759542 148.329002,44.7951237 C147.218379,43.4993969 145.552444,42.7589817 143.331199,42.7589817 C138.518499,42.7589817 136.11215,45.5355389 136.11215,51.0886534 L117.23156,51.0886534 C117.23156,44.424916 119.823014,38.8718015 124.820817,34.4293099 C129.81862,29.9868183 136.297253,27.7655725 144.071614,27.7655725 C152.031078,27.7655725 158.324608,29.8017145 162.581995,34.0591023 C167.024487,38.1313863 169.245733,44.2398122 169.245733,51.8290687 L169.245733,86.0732748 C169.245733,92.3668046 170.171252,97.3646076 172.02229,100.88158 L172.02229,101.992203 L152.586389,101.992203 L152.586389,102.547515 Z M141.295057,89.0349359 C143.331199,89.0349359 145.182237,88.6647283 146.663067,87.7392092 C148.143898,86.8136901 149.254521,85.888171 149.994936,84.7775481 L149.994936,69.5990351 L145.367341,69.5990351 C142.220576,69.5990351 139.629122,70.709658 137.778084,72.7458 C135.927046,74.781942 135.001527,77.5584992 135.001527,81.0754718 C135.001527,86.2583786 137.037669,89.0349359 141.295057,89.0349359 Z"></path>
                                <path d="M182.943415,10.7360214 C182.943415,7.77436031 183.868934,5.36801069 185.719973,3.51697252 C187.571011,1.66593435 190.162464,0.740415267 193.309229,0.740415267 C196.455994,0.740415267 199.047447,1.66593435 200.898486,3.51697252 C202.749524,5.36801069 203.675043,7.77436031 203.675043,10.7360214 C203.675043,13.6976824 202.749524,16.1040321 200.898486,17.9550702 C199.047447,19.8061084 196.455994,20.9167313 193.309229,20.9167313 C190.162464,20.9167313 187.571011,19.9912122 185.719973,17.9550702 C183.868934,16.1040321 182.943415,13.6976824 182.943415,10.7360214 Z M202.934628,102.547515 L183.868934,102.547515 L183.868934,29.6166107 L202.934628,29.6166107 L202.934628,102.547515 Z"></path>
                                <path d="M235.142692,29.6166107 L235.698003,36.8356595 C239.955391,31.0974412 245.693609,28.320884 252.54245,28.320884 C265.12951,28.320884 271.608144,37.0207634 271.978351,54.605626 L271.978351,102.547515 L252.912658,102.547515 L252.912658,56.0864565 C252.912658,52.0141725 252.357347,48.8674076 251.06162,47.0163695 C249.765893,45.1653313 247.729751,44.2398122 244.582986,44.2398122 C241.066014,44.2398122 238.47456,46.0908504 236.438418,49.6078229 L236.438418,102.547515 L217.372725,102.547515 L217.372725,29.6166107 L235.142692,29.6166107 Z"></path>
                                <path d="M285.676034,10.7360214 C285.676034,7.77436031 286.601553,5.36801069 288.452591,3.51697252 C290.303629,1.66593435 292.895082,0.740415267 296.041847,0.740415267 C299.188612,0.740415267 301.780066,1.66593435 303.631104,3.51697252 C305.482142,5.36801069 306.407661,7.77436031 306.407661,10.7360214 C306.407661,13.6976824 305.482142,16.1040321 303.631104,17.9550702 C301.780066,19.8061084 299.188612,20.9167313 296.041847,20.9167313 C292.895082,20.9167313 290.303629,19.9912122 288.452591,17.9550702 C286.601553,16.1040321 285.676034,13.6976824 285.676034,10.7360214 Z M305.667246,102.547515 L286.601553,102.547515 L286.601553,29.6166107 L305.667246,29.6166107 L305.667246,102.547515 Z"></path>
                                <path d="M337.87531,29.6166107 L338.430621,36.8356595 C342.688009,31.0974412 348.426228,28.320884 355.275069,28.320884 C367.862128,28.320884 374.340762,37.0207634 374.71097,54.605626 L374.71097,102.547515 L355.645276,102.547515 L355.645276,56.0864565 C355.645276,52.0141725 355.089965,48.8674076 353.794238,47.0163695 C352.498512,45.1653313 350.46237,44.2398122 347.315605,44.2398122 C343.798632,44.2398122 341.207179,46.0908504 339.171037,49.6078229 L339.171037,102.547515 L320.105344,102.547515 L320.105344,29.6166107 L337.87531,29.6166107 Z"></path>
                                <path d="M386.187406,63.8608168 C386.187406,51.8290687 388.408652,42.9440855 392.66604,37.0207634 C396.923428,31.0974412 403.031853,28.1357802 410.806214,28.1357802 C417.469951,28.1357802 422.467754,30.7272336 426.169831,35.9101405 L426.910246,29.4315069 L444.124901,29.4315069 L444.124901,102.362411 C444.124901,111.617602 441.533447,118.83665 436.350541,123.64935 C431.167634,128.647153 423.578377,131.053502 413.952979,131.053502 C409.880695,131.053502 405.808411,130.313087 401.365919,128.647153 C396.923428,126.981218 393.591559,124.945076 391.555417,122.538727 L398.03405,109.396356 C399.885089,111.247394 402.106334,112.913328 405.067995,114.023951 C408.029657,115.134574 410.62111,115.874989 413.212563,115.874989 C417.469951,115.874989 420.616716,114.764366 422.467754,112.728224 C424.318792,110.692082 425.244312,107.360214 425.244312,102.917722 L425.244312,96.6241924 C421.542235,101.436892 416.91464,103.843241 410.991318,103.843241 C403.216957,103.843241 397.293635,100.88158 393.036247,94.7731542 C388.77886,88.6647283 386.557614,80.1499527 386.557614,69.2288275 L386.557614,63.8608168 L386.187406,63.8608168 Z M405.253099,68.673516 C405.253099,75.3372534 406.178618,80.3350565 407.844553,83.4818214 C409.510487,86.6285863 412.472148,88.1094168 416.174224,88.1094168 C420.061405,88.1094168 423.023066,86.6285863 424.874104,83.852029 L424.874104,49.0525115 C422.837962,45.9057466 420.061405,44.424916 416.359328,44.424916 C412.657252,44.424916 409.695591,45.9057466 408.029657,49.0525115 C406.178618,52.1992763 405.253099,57.1970794 405.253099,64.0459206 L405.253099,68.673516 L405.253099,68.673516 Z"></path>
                            </g>
                            <g transform="translate(100.757321, 112.913328)">
                                <path d="M54.605626,53.4950031 C54.2354183,62.3799863 51.6439649,69.0437237 47.2014733,73.6713191 C42.5738779,78.2989145 36.0952443,80.5201603 27.7655725,80.5201603 C19.0656931,80.5201603 12.2168519,77.5584992 7.58925649,71.8202809 C2.96166107,66.0820626 0.55531145,57.7523908 0.55531145,47.2014733 L0.55531145,34.0591023 C0.55531145,23.3230809 2.96166107,15.178513 7.77436031,9.44029466 C12.5870595,3.70207634 19.2507969,0.740415267 27.9506763,0.740415267 C36.4654519,0.740415267 42.7589817,3.14676489 47.2014733,7.77436031 C51.6439649,12.5870595 54.0503145,19.2507969 54.605626,28.1357802 L38.8718015,28.1357802 C38.6866977,22.5826657 37.9462824,18.8805893 36.2803481,16.8444473 C34.7995176,14.8083053 31.8378565,13.6976824 27.7655725,13.6976824 C23.5081847,13.6976824 20.5465237,15.178513 18.8805893,18.140174 C17.214655,21.1018351 16.2891359,25.9145344 16.1040321,32.5782718 L16.1040321,47.2014733 C16.1040321,54.9758336 17.0295511,60.1587405 18.6954855,63.1204015 C20.3614198,66.0820626 23.3230809,67.3777893 27.5804687,67.3777893 C31.6527527,67.3777893 34.6144137,66.4522702 36.0952443,64.4161282 C37.5760748,62.3799863 38.5015939,58.8630137 38.6866977,53.4950031 L54.605626,53.4950031 L54.605626,53.4950031 Z"></path>
                                <path d="M86.8136901,80.5201603 C79.0393298,80.5201603 73.1160076,78.2989145 68.673516,73.6713191 C64.4161282,69.0437237 62.1948824,62.3799863 62.1948824,53.8652107 L62.1948824,49.2376153 C62.1948824,40.1675282 64.2310244,33.1335832 68.1182046,28.1357802 C72.0053847,23.1379771 77.7436031,20.7316275 85.1477557,20.7316275 C92.3668046,20.7316275 97.9199191,23.1379771 101.436892,27.7655725 C105.138968,32.3931679 106.990006,39.2420092 106.990006,48.3120962 L106.990006,55.7162489 L77.0031878,55.7162489 C77.1882916,59.9736366 78.1138107,63.1204015 79.779745,65.1565435 C81.4456794,67.1926855 84.0371328,68.1182046 87.5541053,68.1182046 C92.5519084,68.1182046 96.8092962,66.4522702 100.141165,62.9352977 L106.064487,72.0053847 C104.213449,74.5968382 101.621995,76.6329802 98.1050229,78.2989145 C94.7731542,79.5946412 90.8859741,80.5201603 86.8136901,80.5201603 Z M77.3733954,44.9802275 L92.3668046,44.9802275 L92.3668046,43.4993969 C92.3668046,39.9824244 91.8114931,37.390971 90.7008702,35.5399328 C89.5902473,33.6888947 87.7392092,32.7633756 85.1477557,32.7633756 C82.5563023,32.7633756 80.5201603,33.6888947 79.4095374,35.5399328 C78.2989145,37.7611786 77.5584992,40.9079435 77.3733954,44.9802275 Z"></path>
                                <path d="M129.572672,21.6571466 L129.942879,27.3953649 C133.274748,22.9528733 137.71724,20.5465237 143.270354,20.5465237 C153.26596,20.5465237 158.263763,27.5804687 158.633971,41.463255 L158.633971,79.4095374 L143.455458,79.4095374 L143.455458,42.5738779 C143.455458,39.2420092 142.900147,37.0207634 141.974627,35.5399328 C141.049108,34.0591023 139.19807,33.318687 136.791721,33.318687 C134.015163,33.318687 131.979021,34.7995176 130.313087,37.5760748 L130.313087,79.4095374 L115.134574,79.4095374 L115.134574,21.8422504 L129.572672,21.8422504 L129.572672,21.6571466 Z"></path>
                                <path d="M186.954855,7.58925649 L186.954855,21.8422504 L194.729215,21.8422504 L194.729215,33.1335832 L186.954855,33.1335832 L186.954855,61.8246748 C186.954855,64.0459206 187.325063,65.711855 187.880374,66.4522702 C188.435686,67.3777893 189.731412,67.747997 191.397347,67.747997 C192.878177,67.747997 193.9888,67.5628931 194.914319,67.3777893 L194.729215,79.0393298 C192.137762,79.9648489 189.361205,80.5201603 186.399544,80.5201603 C176.589041,80.5201603 171.776342,74.9670458 171.591238,63.8608168 L171.591238,33.1335832 L164.927501,33.1335832 L164.927501,21.8422504 L171.591238,21.8422504 L171.591238,7.58925649 L186.954855,7.58925649 L186.954855,7.58925649 Z"></path>
                                <path d="M226.196864,80.5201603 C218.422504,80.5201603 212.499182,78.2989145 208.05669,73.6713191 C203.799302,69.0437237 201.578057,62.3799863 201.578057,53.8652107 L201.578057,49.2376153 C201.578057,40.1675282 203.614198,33.1335832 207.501379,28.1357802 C211.388559,23.1379771 217.126777,20.7316275 224.53093,20.7316275 C231.749979,20.7316275 237.303093,23.1379771 240.820066,27.7655725 C244.522142,32.3931679 246.37318,39.2420092 246.37318,48.3120962 L246.37318,55.7162489 L216.571466,55.7162489 C216.756569,59.9736366 217.682089,63.1204015 219.348023,65.1565435 C221.013957,67.1926855 223.605411,68.1182046 227.122383,68.1182046 C232.120186,68.1182046 236.377574,66.4522702 239.709443,62.9352977 L245.632765,72.0053847 C243.781727,74.5968382 241.190273,76.6329802 237.673301,78.2989145 C234.156328,79.5946412 230.269148,80.5201603 226.196864,80.5201603 Z M216.756569,44.9802275 L231.749979,44.9802275 L231.749979,43.4993969 C231.749979,39.9824244 231.194667,37.390971 230.084044,35.5399328 C228.973421,33.6888947 227.122383,32.7633756 224.53093,32.7633756 C221.939476,32.7633756 219.903334,33.6888947 218.792711,35.5399328 C217.682089,37.7611786 216.941673,40.9079435 216.756569,44.9802275 Z"></path>
                                <path d="M283.579047,36.2803481 L278.581244,35.9101405 C274.50896,35.9101405 271.732403,37.7611786 270.251573,41.2781511 L270.251573,79.4095374 L255.07306,79.4095374 L255.07306,21.8422504 L269.326053,21.8422504 L269.696261,28.1357802 C272.102611,23.3230809 275.434479,20.9167313 279.506763,20.9167313 C281.172698,20.9167313 282.653528,21.1018351 283.579047,21.6571466 L283.579047,36.2803481 Z"></path>
                            </g>
                        </g>
                    </g>
                </g>
            </g>
        </g>
    </g>
</svg>